<?xml version="1.0" encoding="UTF-8" standalone="no"?>
<!DOCTYPE svg PUBLIC "-//W3C//DTD SVG 1.1//EN"
 "http://www.w3.org/Graphics/SVG/1.1/DTD/svg11.dtd">
<!-- Generated by graphviz version 12.1.1 (20240910.0053)
 -->
<!-- Title: INFRA Pages: 1 -->
<svg width="5881pt" height="296pt"
 viewBox="0.00 0.00 5880.83 296.00" xmlns="http://www.w3.org/2000/svg" xmlns:xlink="http://www.w3.org/1999/xlink">
<g id="graph0" class="graph" transform="scale(1 1) rotate(0) translate(4 292)">
<title>INFRA</title>
<polygon fill="white" stroke="none" points="-4,4 -4,-292 5876.83,-292 5876.83,4 -4,4"/>
<!-- aws_vpc -->
<g id="node1" class="node">
<title>aws_vpc</title>
<ellipse fill="#e6e6e6" stroke="black" stroke-width="2" cx="1980.99" cy="-36" rx="78.9" ry="36"/>
<text text-anchor="middle" x="1980.99" y="-40.2" font-family="Arial" font-size="14.00">aws_vpc</text>
<text text-anchor="middle" x="1980.99" y="-23.4" font-family="Arial" font-size="14.00">(AWS::EC2::VPC)</text>
</g>
<!-- aws_vpc_block_public_access_exclusion -->
<g id="node2" class="node">
<title>aws_vpc_block_public_access_exclusion</title>
<ellipse fill="#e6e6e6" stroke="black" stroke-width="2" cx="976.99" cy="-144" rx="187.58" ry="36"/>
<text text-anchor="middle" x="976.99" y="-148.2" font-family="Arial" font-size="14.00">aws_vpc_block_public_access_exclusion</text>
<text text-anchor="middle" x="976.99" y="-131.4" font-family="Arial" font-size="14.00">(AWS::EC2::VPCBlockPublicAccessExclusion)</text>
</g>
<!-- aws_vpc_block_public_access_exclusion&#45;&gt;aws_vpc -->
<g id="edge1" class="edge">
<title>aws_vpc_block_public_access_exclusion&#45;&gt;aws_vpc</title>
<path fill="none" stroke="black" d="M1108.26,-117.9C1129.84,-114.25 1152,-110.79 1172.99,-108 1432.84,-73.45 1742.02,-51.61 1891.39,-42.26"/>
<polygon fill="black" stroke="black" points="1891.46,-45.76 1901.22,-41.65 1891.03,-38.77 1891.46,-45.76"/>
</g>
<!-- aws_vpc_block_public_access_options -->
<g id="node3" class="node">
<title>aws_vpc_block_public_access_options</title>
<ellipse fill="#e6e6e6" stroke="black" stroke-width="2" cx="3216.99" cy="-252" rx="180.43" ry="36"/>
<text text-anchor="middle" x="3216.99" y="-256.2" font-family="Arial" font-size="14.00">aws_vpc_block_public_access_options</text>
<text text-anchor="middle" x="3216.99" y="-239.4" font-family="Arial" font-size="14.00">(AWS::EC2::VPCBlockPublicAccessOptions)</text>
</g>
<!-- aws_vpc_dhcp_options -->
<g id="node4" class="node">
<title>aws_vpc_dhcp_options</title>
<ellipse fill="#e6e6e6" stroke="black" stroke-width="2" cx="3024.99" cy="-36" rx="115.12" ry="36"/>
<text text-anchor="middle" x="3024.99" y="-40.2" font-family="Arial" font-size="14.00">aws_vpc_dhcp_options</text>
<text text-anchor="middle" x="3024.99" y="-23.4" font-family="Arial" font-size="14.00">(AWS::EC2::DHCPOptions)</text>
</g>
<!-- aws_vpc_dhcp_options_association -->
<g id="node5" class="node">
<title>aws_vpc_dhcp_options_association</title>
<ellipse fill="#e6e6e6" stroke="black" stroke-width="2" cx="3024.99" cy="-144" rx="176.61" ry="36"/>
<text text-anchor="middle" x="3024.99" y="-148.2" font-family="Arial" font-size="14.00">aws_vpc_dhcp_options_association</text>
<text text-anchor="middle" x="3024.99" y="-131.4" font-family="Arial" font-size="14.00">(AWS::EC2::VPCDHCPOptionsAssociation)</text>
</g>
<!-- aws_vpc_dhcp_options_association&#45;&gt;aws_vpc -->
<g id="edge2" class="edge">
<title>aws_vpc_dhcp_options_association&#45;&gt;aws_vpc</title>
<path fill="none" stroke="black" d="M2901.89,-117.85C2881.28,-114.18 2860.07,-110.72 2839.99,-108 2560.79,-70.16 2227.61,-49.57 2070.89,-41.33"/>
<polygon fill="black" stroke="black" points="2071.14,-37.84 2060.97,-40.81 2070.77,-44.83 2071.14,-37.84"/>
</g>
<!-- aws_vpc_dhcp_options_association&#45;&gt;aws_vpc_dhcp_options -->
<g id="edge3" class="edge">
<title>aws_vpc_dhcp_options_association&#45;&gt;aws_vpc_dhcp_options</title>
<path fill="none" stroke="black" d="M3024.99,-107.7C3024.99,-99.93 3024.99,-91.57 3024.99,-83.43"/>
<polygon fill="black" stroke="black" points="3028.49,-83.66 3024.99,-73.66 3021.49,-83.66 3028.49,-83.66"/>
</g>
<!-- aws_vpc_endpoint -->
<g id="node6" class="node">
<title>aws_vpc_endpoint</title>
<ellipse fill="#e6e6e6" stroke="black" stroke-width="2" cx="1294.99" cy="-144" rx="112.76" ry="36"/>
<text text-anchor="middle" x="1294.99" y="-148.2" font-family="Arial" font-size="14.00">aws_vpc_endpoint</text>
<text text-anchor="middle" x="1294.99" y="-131.4" font-family="Arial" font-size="14.00">(AWS::EC2::VPCEndpoint)</text>
</g>
<!-- aws_vpc_endpoint&#45;&gt;aws_vpc -->
<g id="edge4" class="edge">
<title>aws_vpc_endpoint&#45;&gt;aws_vpc</title>
<path fill="none" stroke="black" d="M1391.58,-124.99C1422.94,-119.33 1457.9,-113.2 1489.99,-108 1631.27,-85.11 1796.02,-62.02 1894.24,-48.64"/>
<polygon fill="black" stroke="black" points="1894.65,-52.11 1904.08,-47.3 1893.7,-45.18 1894.65,-52.11"/>
</g>
<!-- aws_vpc_endpoint_connection_accepter -->
<g id="node7" class="node">
<title>aws_vpc_endpoint_connection_accepter</title>
<ellipse fill="#e6e6e6" stroke="black" stroke-width="2" cx="189.99" cy="-252" rx="189.99" ry="36"/>
<text text-anchor="middle" x="189.99" y="-256.2" font-family="Arial" font-size="14.00">aws_vpc_endpoint_connection_accepter</text>
<text text-anchor="middle" x="189.99" y="-239.4" font-family="Arial" font-size="14.00">(AWS::EC2::VPCEndpointConnectionAccepter)</text>
</g>
<!-- aws_vpc_endpoint_connection_accepter&#45;&gt;aws_vpc_endpoint -->
<g id="edge5" class="edge">
<title>aws_vpc_endpoint_connection_accepter&#45;&gt;aws_vpc_endpoint</title>
<path fill="none" stroke="black" d="M320.77,-225.54C343.45,-221.83 366.85,-218.44 388.99,-216 736.14,-177.67 829.4,-236.92 1173.99,-180 1184.48,-178.27 1195.35,-175.93 1206.07,-173.28"/>
<polygon fill="black" stroke="black" points="1206.9,-176.68 1215.71,-170.8 1205.15,-169.9 1206.9,-176.68"/>
</g>
<!-- aws_vpc_endpoint_connection_notification -->
<g id="node8" class="node">
<title>aws_vpc_endpoint_connection_notification</title>
<ellipse fill="#e6e6e6" stroke="black" stroke-width="2" cx="3613.99" cy="-252" rx="198.57" ry="36"/>
<text text-anchor="middle" x="3613.99" y="-256.2" font-family="Arial" font-size="14.00">aws_vpc_endpoint_connection_notification</text>
<text text-anchor="middle" x="3613.99" y="-239.4" font-family="Arial" font-size="14.00">(AWS::EC2::VPCEndpointConnectionNotification)</text>
</g>
<!-- aws_vpc_endpoint_policy -->
<g id="node9" class="node">
<title>aws_vpc_endpoint_policy</title>
<ellipse fill="#e6e6e6" stroke="black" stroke-width="2" cx="533.99" cy="-252" rx="135.63" ry="36"/>
<text text-anchor="middle" x="533.99" y="-256.2" font-family="Arial" font-size="14.00">aws_vpc_endpoint_policy</text>
<text text-anchor="middle" x="533.99" y="-239.4" font-family="Arial" font-size="14.00">(AWS::EC2::VPCEndpointPolicy)</text>
</g>
<!-- aws_vpc_endpoint_policy&#45;&gt;aws_vpc_endpoint -->
<g id="edge6" class="edge">
<title>aws_vpc_endpoint_policy&#45;&gt;aws_vpc_endpoint</title>
<path fill="none" stroke="black" d="M628.04,-225.77C644.59,-222.01 661.72,-218.55 677.99,-216 896.35,-181.78 956.42,-218.92 1173.99,-180 1184.29,-178.16 1194.98,-175.78 1205.53,-173.13"/>
<polygon fill="black" stroke="black" points="1206.21,-176.57 1215.01,-170.67 1204.45,-169.8 1206.21,-176.57"/>
</g>
<!-- aws_vpc_endpoint_private_dns -->
<g id="node10" class="node">
<title>aws_vpc_endpoint_private_dns</title>
<ellipse fill="#e6e6e6" stroke="black" stroke-width="2" cx="844.99" cy="-252" rx="157.56" ry="36"/>
<text text-anchor="middle" x="844.99" y="-256.2" font-family="Arial" font-size="14.00">aws_vpc_endpoint_private_dns</text>
<text text-anchor="middle" x="844.99" y="-239.4" font-family="Arial" font-size="14.00">(AWS::EC2::VPCEndpointPrivateDNS)</text>
</g>
<!-- aws_vpc_endpoint_private_dns&#45;&gt;aws_vpc_endpoint -->
<g id="edge7" class="edge">
<title>aws_vpc_endpoint_private_dns&#45;&gt;aws_vpc_endpoint</title>
<path fill="none" stroke="black" d="M958.75,-226.85C1045.26,-208.42 1152.92,-185.31 1173.99,-180 1183.39,-177.63 1193.16,-175.03 1202.89,-172.35"/>
<polygon fill="black" stroke="black" points="1203.69,-175.77 1212.38,-169.71 1201.81,-169.02 1203.69,-175.77"/>
</g>
<!-- aws_vpc_endpoint_route_table_association -->
<g id="node11" class="node">
<title>aws_vpc_endpoint_route_table_association</title>
<ellipse fill="#e6e6e6" stroke="black" stroke-width="2" cx="1221.99" cy="-252" rx="200.95" ry="36"/>
<text text-anchor="middle" x="1221.99" y="-256.2" font-family="Arial" font-size="14.00">aws_vpc_endpoint_route_table_association</text>
<text text-anchor="middle" x="1221.99" y="-239.4" font-family="Arial" font-size="14.00">(AWS::EC2::VPCEndpointRouteTableAssociation)</text>
</g>
<!-- aws_vpc_endpoint_route_table_association&#45;&gt;aws_vpc_endpoint -->
<g id="edge8" class="edge">
<title>aws_vpc_endpoint_route_table_association&#45;&gt;aws_vpc_endpoint</title>
<path fill="none" stroke="black" d="M1246.09,-216C1252.07,-207.32 1258.56,-197.9 1264.79,-188.85"/>
<polygon fill="black" stroke="black" points="1267.51,-191.07 1270.3,-180.85 1261.75,-187.1 1267.51,-191.07"/>
</g>
<!-- aws_vpc_endpoint_security_group_association -->
<g id="node12" class="node">
<title>aws_vpc_endpoint_security_group_association</title>
<ellipse fill="#e6e6e6" stroke="black" stroke-width="2" cx="1651.99" cy="-252" rx="211.43" ry="36"/>
<text text-anchor="middle" x="1651.99" y="-256.2" font-family="Arial" font-size="14.00">aws_vpc_endpoint_security_group_association</text>
<text text-anchor="middle" x="1651.99" y="-239.4" font-family="Arial" font-size="14.00">(AWS::EC2::VPCEndpointSecurityGroupAssociation)</text>
</g>
<!-- aws_vpc_endpoint_security_group_association&#45;&gt;aws_vpc_endpoint -->
<g id="edge9" class="edge">
<title>aws_vpc_endpoint_security_group_association&#45;&gt;aws_vpc_endpoint</title>
<path fill="none" stroke="black" d="M1548.25,-220.2C1497.44,-205.11 1436.75,-187.09 1387.53,-172.48"/>
<polygon fill="black" stroke="black" points="1388.6,-169.14 1378.02,-169.65 1386.61,-175.85 1388.6,-169.14"/>
</g>
<!-- aws_vpc_endpoint_service -->
<g id="node13" class="node">
<title>aws_vpc_endpoint_service</title>
<ellipse fill="#e6e6e6" stroke="black" stroke-width="2" cx="4259.99" cy="-144" rx="141.35" ry="36"/>
<text text-anchor="middle" x="4259.99" y="-148.2" font-family="Arial" font-size="14.00">aws_vpc_endpoint_service</text>
<text text-anchor="middle" x="4259.99" y="-131.4" font-family="Arial" font-size="14.00">(AWS::EC2::VPCEndpointService)</text>
</g>
<!-- aws_vpc_endpoint_service_allowed_principal -->
<g id="node14" class="node">
<title>aws_vpc_endpoint_service_allowed_principal</title>
<ellipse fill="#e6e6e6" stroke="black" stroke-width="2" cx="4034.99" cy="-252" rx="204.28" ry="36"/>
<text text-anchor="middle" x="4034.99" y="-256.2" font-family="Arial" font-size="14.00">aws_vpc_endpoint_service_allowed_principal</text>
<text text-anchor="middle" x="4034.99" y="-239.4" font-family="Arial" font-size="14.00">(AWS::EC2::VPCEndpointServiceAllowedPrincipal)</text>
</g>
<!-- aws_vpc_endpoint_service_allowed_principal&#45;&gt;aws_vpc_endpoint_service -->
<g id="edge10" class="edge">
<title>aws_vpc_endpoint_service_allowed_principal&#45;&gt;aws_vpc_endpoint_service</title>
<path fill="none" stroke="black" d="M4105.56,-217.75C4130.37,-206.07 4158.35,-192.88 4183.61,-180.98"/>
<polygon fill="black" stroke="black" points="4184.96,-184.22 4192.51,-176.79 4181.98,-177.88 4184.96,-184.22"/>
</g>
<!-- aws_vpc_endpoint_service_private_dns_verification -->
<g id="node15" class="node">
<title>aws_vpc_endpoint_service_private_dns_verification</title>
<ellipse fill="#e6e6e6" stroke="black" stroke-width="2" cx="4485.99" cy="-252" rx="228.58" ry="36"/>
<text text-anchor="middle" x="4485.99" y="-256.2" font-family="Arial" font-size="14.00">aws_vpc_endpoint_service_private_dns_verification</text>
<text text-anchor="middle" x="4485.99" y="-239.4" font-family="Arial" font-size="14.00">(AWS::EC2::VPCEndpointServicePrivateDNSVerification)</text>
</g>
<!-- aws_vpc_endpoint_service_private_dns_verification&#45;&gt;aws_vpc_endpoint_service -->
<g id="edge11" class="edge">
<title>aws_vpc_endpoint_service_private_dns_verification&#45;&gt;aws_vpc_endpoint_service</title>
<path fill="none" stroke="black" d="M4414.48,-217.46C4389.7,-205.84 4361.84,-192.77 4336.66,-180.96"/>
<polygon fill="black" stroke="black" points="4338.33,-177.88 4327.79,-176.8 4335.36,-184.22 4338.33,-177.88"/>
</g>
<!-- aws_vpc_endpoint_subnet_association -->
<g id="node16" class="node">
<title>aws_vpc_endpoint_subnet_association</title>
<ellipse fill="#e6e6e6" stroke="black" stroke-width="2" cx="2064.99" cy="-252" rx="183.8" ry="36"/>
<text text-anchor="middle" x="2064.99" y="-256.2" font-family="Arial" font-size="14.00">aws_vpc_endpoint_subnet_association</text>
<text text-anchor="middle" x="2064.99" y="-239.4" font-family="Arial" font-size="14.00">(AWS::EC2::VPCEndpointSubnetAssociation)</text>
</g>
<!-- aws_vpc_endpoint_subnet_association&#45;&gt;aws_vpc_endpoint -->
<g id="edge12" class="edge">
<title>aws_vpc_endpoint_subnet_association&#45;&gt;aws_vpc_endpoint</title>
<path fill="none" stroke="black" d="M1935.72,-225.99C1914.48,-222.33 1892.65,-218.84 1871.99,-216 1703.05,-192.76 1658.95,-203.08 1489.99,-180 1461.11,-176.05 1429.98,-170.89 1401.25,-165.73"/>
<polygon fill="black" stroke="black" points="1401.9,-162.3 1391.44,-163.96 1400.66,-169.18 1401.9,-162.3"/>
</g>
<!-- aws_vpc_ipv4_cidr_block_association -->
<g id="node17" class="node">
<title>aws_vpc_ipv4_cidr_block_association</title>
<ellipse fill="#e6e6e6" stroke="black" stroke-width="2" cx="1653.99" cy="-144" rx="154.73" ry="36"/>
<text text-anchor="middle" x="1653.99" y="-148.2" font-family="Arial" font-size="14.00">aws_vpc_ipv4_cidr_block_association</text>
<text text-anchor="middle" x="1653.99" y="-131.4" font-family="Arial" font-size="14.00">(AWS::EC2::VPCCidrBlock)</text>
</g>
<!-- aws_vpc_ipv4_cidr_block_association&#45;&gt;aws_vpc -->
<g id="edge13" class="edge">
<title>aws_vpc_ipv4_cidr_block_association&#45;&gt;aws_vpc</title>
<path fill="none" stroke="black" d="M1742.91,-114.18C1794.16,-97.56 1857.86,-76.91 1906.47,-61.16"/>
<polygon fill="black" stroke="black" points="1907.35,-64.55 1915.79,-58.14 1905.2,-57.89 1907.35,-64.55"/>
</g>
<!-- aws_vpc_ipv6_cidr_block_association -->
<g id="node18" class="node">
<title>aws_vpc_ipv6_cidr_block_association</title>
<ellipse fill="#e6e6e6" stroke="black" stroke-width="2" cx="1980.99" cy="-144" rx="154.73" ry="36"/>
<text text-anchor="middle" x="1980.99" y="-148.2" font-family="Arial" font-size="14.00">aws_vpc_ipv6_cidr_block_association</text>
<text text-anchor="middle" x="1980.99" y="-131.4" font-family="Arial" font-size="14.00">(AWS::EC2::VPCCidrBlock)</text>
</g>
<!-- aws_vpc_ipv6_cidr_block_association&#45;&gt;aws_vpc -->
<g id="edge14" class="edge">
<title>aws_vpc_ipv6_cidr_block_association&#45;&gt;aws_vpc</title>
<path fill="none" stroke="black" d="M1980.99,-107.7C1980.99,-99.93 1980.99,-91.57 1980.99,-83.43"/>
<polygon fill="black" stroke="black" points="1984.49,-83.66 1980.99,-73.66 1977.49,-83.66 1984.49,-83.66"/>
</g>
<!-- aws_vpc_network_performance_metric_subscription -->
<g id="node19" class="node">
<title>aws_vpc_network_performance_metric_subscription</title>
<ellipse fill="#e6e6e6" stroke="black" stroke-width="2" cx="4962.99" cy="-252" rx="229.99" ry="36"/>
<text text-anchor="middle" x="4962.99" y="-256.2" font-family="Arial" font-size="14.00">aws_vpc_network_performance_metric_subscription</text>
<text text-anchor="middle" x="4962.99" y="-239.4" font-family="Arial" font-size="14.00">(AWS::EC2::VPCNetworkPerformanceMetricSubscription)</text>
</g>
<!-- aws_vpc_peering_connection -->
<g id="node20" class="node">
<title>aws_vpc_peering_connection</title>
<ellipse fill="#e6e6e6" stroke="black" stroke-width="2" cx="2305.99" cy="-144" rx="151.85" ry="36"/>
<text text-anchor="middle" x="2305.99" y="-148.2" font-family="Arial" font-size="14.00">aws_vpc_peering_connection</text>
<text text-anchor="middle" x="2305.99" y="-131.4" font-family="Arial" font-size="14.00">(AWS::EC2::VPCPeeringConnection)</text>
</g>
<!-- aws_vpc_peering_connection&#45;&gt;aws_vpc -->
<g id="edge15" class="edge">
<title>aws_vpc_peering_connection&#45;&gt;aws_vpc</title>
<path fill="none" stroke="black" d="M2218.04,-114.31C2167.09,-97.7 2103.67,-77.01 2055.25,-61.22"/>
<polygon fill="black" stroke="black" points="2056.56,-57.97 2045.97,-58.19 2054.39,-64.62 2056.56,-57.97"/>
</g>
<!-- aws_vpc_peering_connection_accepter -->
<g id="node21" class="node">
<title>aws_vpc_peering_connection_accepter</title>
<ellipse fill="#e6e6e6" stroke="black" stroke-width="2" cx="2451.99" cy="-252" rx="185.69" ry="36"/>
<text text-anchor="middle" x="2451.99" y="-256.2" font-family="Arial" font-size="14.00">aws_vpc_peering_connection_accepter</text>
<text text-anchor="middle" x="2451.99" y="-239.4" font-family="Arial" font-size="14.00">(AWS::EC2::VPCPeeringConnectionAccepter)</text>
</g>
<!-- aws_vpc_peering_connection_accepter&#45;&gt;aws_vpc_peering_connection -->
<g id="edge16" class="edge">
<title>aws_vpc_peering_connection_accepter&#45;&gt;aws_vpc_peering_connection</title>
<path fill="none" stroke="black" d="M2404.99,-216.88C2391.18,-206.85 2375.94,-195.78 2361.64,-185.4"/>
<polygon fill="black" stroke="black" points="2363.77,-182.63 2353.63,-179.59 2359.66,-188.29 2363.77,-182.63"/>
</g>
<!-- aws_vpc_peering_connection_options -->
<g id="node22" class="node">
<title>aws_vpc_peering_connection_options</title>
<ellipse fill="#e6e6e6" stroke="black" stroke-width="2" cx="2836.99" cy="-252" rx="181.4" ry="36"/>
<text text-anchor="middle" x="2836.99" y="-256.2" font-family="Arial" font-size="14.00">aws_vpc_peering_connection_options</text>
<text text-anchor="middle" x="2836.99" y="-239.4" font-family="Arial" font-size="14.00">(AWS::EC2::VPCPeeringConnectionOptions)</text>
</g>
<!-- aws_vpc_peering_connection_options&#45;&gt;aws_vpc_peering_connection -->
<g id="edge17" class="edge">
<title>aws_vpc_peering_connection_options&#45;&gt;aws_vpc_peering_connection</title>
<path fill="none" stroke="black" d="M2705.9,-226.78C2634.82,-213.43 2545.49,-196.3 2465.99,-180 2453.15,-177.37 2439.75,-174.55 2426.4,-171.7"/>
<polygon fill="black" stroke="black" points="2427.21,-168.29 2416.69,-169.61 2425.74,-175.13 2427.21,-168.29"/>
</g>
<!-- aws_vpc_security_group_egress_rule -->
<g id="node23" class="node">
<title>aws_vpc_security_group_egress_rule</title>
<ellipse fill="#e6e6e6" stroke="black" stroke-width="2" cx="5370.99" cy="-252" rx="160.41" ry="36"/>
<text text-anchor="middle" x="5370.99" y="-256.2" font-family="Arial" font-size="14.00">aws_vpc_security_group_egress_rule</text>
<text text-anchor="middle" x="5370.99" y="-239.4" font-family="Arial" font-size="14.00">(AWS::EC2::SecurityGroupEgressRule)</text>
</g>
<!-- aws_vpc_security_group_ingress_rule -->
<g id="node24" class="node">
<title>aws_vpc_security_group_ingress_rule</title>
<ellipse fill="#e6e6e6" stroke="black" stroke-width="2" cx="5710.99" cy="-252" rx="161.84" ry="36"/>
<text text-anchor="middle" x="5710.99" y="-256.2" font-family="Arial" font-size="14.00">aws_vpc_security_group_ingress_rule</text>
<text text-anchor="middle" x="5710.99" y="-239.4" font-family="Arial" font-size="14.00">(AWS::EC2::SecurityGroupIngressRule)</text>
</g>
<!-- aws_vpc_security_group_vpc_association -->
<g id="node25" class="node">
<title>aws_vpc_security_group_vpc_association</title>
<ellipse fill="#e6e6e6" stroke="black" stroke-width="2" cx="2652.99" cy="-144" rx="177.57" ry="36"/>
<text text-anchor="middle" x="2652.99" y="-148.2" font-family="Arial" font-size="14.00">aws_vpc_security_group_vpc_association</text>
<text text-anchor="middle" x="2652.99" y="-131.4" font-family="Arial" font-size="14.00">(AWS::EC2::SecurityGroupVPCAssociation)</text>
</g>
<!-- aws_vpc_security_group_vpc_association&#45;&gt;aws_vpc -->
<g id="edge18" class="edge">
<title>aws_vpc_security_group_vpc_association&#45;&gt;aws_vpc</title>
<path fill="none" stroke="black" d="M2526.3,-118.44C2506.47,-114.81 2486.19,-111.21 2466.99,-108 2327.64,-84.72 2165.08,-61.83 2067.74,-48.58"/>
<polygon fill="black" stroke="black" points="2068.37,-45.14 2057.99,-47.26 2067.42,-52.07 2068.37,-45.14"/>
</g>
</g>
</svg>
